<svg xmlns="http://www.w3.org/2000/svg" xmlns:xlink="http://www.w3.org/1999/xlink" version="1.1" x="0px" y="0px" width="100px" height="100px"
     viewBox="55 0 400 500" fill="gray" opacity="0.4" style="enable-background:new 0 0 512 512;" xml:space="preserve"><g><path d="M457.752,132.92c-21.586-36.344-58.557-61.03-101.44-67.713c-35.468-5.557-70.943,1.96-100.377,20.946   c-29.193-18.814-64.658-26.527-100.26-20.946c-42.883,6.683-79.847,31.369-101.425,67.713   c-17.628,29.675-24.938,63.971-21.73,101.937c4.243,50.746,36.355,99.738,94.988,145.735l-14.478,15.4   c-9.38,9.964-9.243,25.45,0.303,35.255c4.83,4.946,11.297,7.685,18.212,7.7c0.014,0,0.029,0,0.043,0   c6.9,0,13.359-2.711,18.197-7.642l20.412-20.796c17.591,11.042,36.147,21.493,55.433,30.962c9.654,4.744,20.007,7.109,30.367,7.109   c10.36,0,20.72-2.365,30.353-7.109c19.326-9.482,37.883-19.933,55.451-30.964l20.409,20.798c4.83,4.931,11.29,7.642,18.197,7.642   c0.014,0,0.043,0,0.058,0c6.921-0.014,13.381-2.754,18.183-7.7c9.56-9.805,9.704-25.291,0.317-35.255l-14.48-15.402   c58.631-45.983,90.74-94.974,94.997-145.726C482.683,196.913,475.372,162.617,457.752,132.92z M44.287,233.87   c-2.992-35.464,3.778-67.403,20.115-94.922c19.776-33.301,53.705-55.925,93.091-62.075c39.458-6.135,78.671,5.09,107.712,30.843   c19.863,17.642,32.898,39.905,38.737,66.17c7.625,34.157-0.169,70.398-21.084,100.611l-9.802-10.145   c-3.747-3.874-6.989-8.03-9.993-12.292c13.484-22.441,18.056-47.785,12.675-71.88c-2.704-12.206-7.656-23.12-14.309-32.95   c-0.351-0.939-0.903-1.787-1.719-2.464c-4.005-5.517-8.412-10.776-13.682-15.45c-5.35-4.744-11.182-8.868-17.39-12.328   c-0.187-0.123-0.389-0.231-0.591-0.332c-19.603-10.764-43.236-14.809-66.112-11.247c-30.843,4.816-57.338,22.415-72.695,48.283   c-13.194,22.213-18.637,48.369-16.186,77.756c3.365,40.107,31.245,80.251,82.426,119.393l-19.866,21.131   C79.12,327.885,48.275,281.459,44.287,233.87z M348.425,342.353l-57.208-59.205c23.819-33.282,32.757-73.709,24.259-111.829   c-3.841-17.279-10.878-32.764-20.337-46.74c16.278-7.494,34.996-10.305,53.097-7.505c27.353,4.275,50.813,19.812,64.368,42.645   c11.91,20.064,16.813,43.863,14.563,70.734C424.069,267.409,397.581,305.036,348.425,342.353z M247.786,182.732   c1.726-7.8,4.738-14.894,8.325-21.621c3.558,6.69,6.372,13.843,8.098,21.628c4.29,19.192,1.364,39.371-8.14,57.779   C246.673,222.277,243.48,202.002,247.786,182.732z M220.649,283.277l-57.079,59.076c-49.155-37.317-75.643-74.944-78.751-111.893   c-2.235-26.885,2.668-50.684,14.571-70.741c13.554-22.826,37.014-38.37,64.36-42.645c4.895-0.757,9.899-1.146,14.852-1.146   c13.367,0,26.337,2.848,38.06,8.219c-9.531,14.037-16.301,29.87-20.144,47.173C187.961,209.703,196.944,250.178,220.649,283.277z    M141.35,423.029c-2.595,2.653-6.063,4.109-9.762,4.109c-0.007,0-0.014,0-0.022,0c-3.713-0.014-7.181-1.485-9.769-4.138   c-5.126-5.263-5.198-13.569-0.166-18.904l46.87-49.847c0.002-0.002,0.002-0.004,0.004-0.005l59.461-61.536   c2.343,2.783,4.794,5.508,7.361,8.161l12.451,12.876l-53.553,55.413l-0.001,0.002L141.35,423.029z M255.998,322.252l48.146,49.804   c-11.838,7.051-24.109,13.799-36.596,20.086c-7.339,3.72-15.76,3.72-23.1,0c-12.516-6.301-24.794-13.049-36.589-20.086   L255.998,322.252z M281.145,430.858c-15.977,7.873-34.311,7.873-50.302,0c-18.127-8.89-35.535-18.704-52.14-29.014l20.761-21.152   c12.774,7.708,26.048,15.129,39.663,22.006c5.364,2.696,11.117,4.052,16.871,4.052s11.507-1.355,16.871-4.052   c13.572-6.852,26.851-14.276,39.676-22.007l20.75,21.146C316.722,412.139,299.313,421.954,281.145,430.858z M390.183,423   c-2.581,2.653-6.042,4.124-9.747,4.138c0,0-0.014,0-0.029,0c-3.706,0-7.181-1.456-9.776-4.109l-52.823-53.831   c-0.011-0.012-0.013-0.028-0.023-0.04l-57.403-59.379c-0.087-0.087-0.18-0.187-0.274-0.274l-16.287-16.856   c-3.814-3.936-7.368-8.06-10.641-12.314c-0.072-0.101-0.144-0.187-0.223-0.288c-23.77-31.045-33.049-69.674-24.902-106.162   c3.605-16.236,10.007-31.037,19.048-44.072c3.9,2.473,7.606,5.256,11.081,8.342c4.051,3.591,7.531,7.572,10.731,11.738   c-5.766,9.177-10.212,19.218-12.656,30.272c-5.648,25.258-0.16,51.955,14.499,74.757c0.247,0.521,0.563,0.982,0.962,1.418   c3.768,5.667,7.946,11.153,12.851,16.223l78.982,81.743c0.009,0.009,0.022,0.012,0.031,0.021l46.789,49.769   C395.403,409.431,395.317,417.737,390.183,423z M467.716,233.87c-3.994,47.602-34.846,94.027-91.336,138.1l-19.858-21.123   c51.172-39.142,79.041-79.29,82.413-119.406c2.451-29.372-2.985-55.536-16.178-77.749c-15.357-25.875-41.859-43.474-72.702-48.283   c-21.142-3.301-42.983,0.176-61.786,9.344c-4.591-5.608-9.645-10.919-15.228-15.876c-2.139-1.896-4.451-3.535-6.689-5.286   c26.171-15.573,57.126-21.566,88.143-16.718c39.379,6.15,73.322,28.774,93.105,62.075   C463.938,166.488,470.701,198.42,467.716,233.87z"/><path
        d="M218.049,403.834c-0.378-2.683-2.456-5.464-5.693-7.116c-4.611-2.351-9.748-1.516-11.473,1.867   c-1.726,3.383,0.614,8.032,5.224,10.384c3.237,1.651,6.709,1.701,9.102,0.432l0.274,0.139c1.531,0.781,3.422,0.168,4.202-1.363   h0.001c0.78-1.531,0.167-3.422-1.364-4.203L218.049,403.834z"/><path
        d="M135.914,344.913l-0.304-0.047c-1.201-2.428-4.049-4.415-7.641-4.965c-5.116-0.783-9.73,1.625-10.304,5.379   c-0.575,3.754,3.107,7.431,8.224,8.214c3.592,0.55,6.903-0.495,8.776-2.452l0.304,0.046c1.699,0.26,3.301-0.917,3.562-2.615   C138.79,346.775,137.613,345.173,135.914,344.913z"/><path
        d="M95.207,301.91c-1.354-4.995-5.423-8.241-9.088-7.247c-3.666,0.993-5.54,5.848-4.186,10.844   c0.951,3.507,3.245,6.114,5.793,7.034l0.08,0.297c0.45,1.658,2.175,2.648,3.833,2.198c1.658-0.45,2.648-2.174,2.198-3.833   l-0.08-0.297C95.492,308.826,96.157,305.418,95.207,301.91z"/><path
        d="M58.521,237.193l-0.202-0.232c-1.132-1.293-3.115-1.425-4.409-0.294c-1.293,1.132-1.425,3.115-0.294,4.409l0.203,0.232   c-0.645,2.631,0.252,5.985,2.645,8.72c3.409,3.895,8.489,5.025,11.347,2.524c2.858-2.501,2.411-7.686-0.998-11.581   C64.42,238.237,61.214,236.902,58.521,237.193z"/><path
        d="M65.543,189.544c2.242-2.86,2.958-6.258,2.171-8.851l0.19-0.242c1.06-1.353,0.821-3.326-0.531-4.386h-0.001   c-1.352-1.061-3.325-0.822-4.386,0.531l-0.189,0.242c-2.705-0.145-5.834,1.361-8.077,4.22c-3.194,4.073-3.361,9.275-0.372,11.618   C57.337,195.02,62.349,193.617,65.543,189.544z"/><path
        d="M91.995,131.146c3.424,1.22,6.873,0.821,9.082-0.746l0.289,0.103c1.619,0.577,3.415-0.276,3.991-1.894   c0.577-1.619-0.275-3.415-1.894-3.991l-0.289-0.103c-0.72-2.612-3.14-5.103-6.563-6.322c-4.876-1.738-9.862-0.247-11.137,3.331   C84.2,125.1,87.119,129.408,91.995,131.146z"/><path
        d="M149.075,100.781c2.508-2.63,3.549-5.943,3.017-8.599l0.212-0.223c1.186-1.243,1.139-3.231-0.105-4.417   c-1.244-1.186-3.231-1.139-4.417,0.105l-0.212,0.223c-2.679-0.406-5.939,0.789-8.447,3.419c-3.572,3.745-4.241,8.907-1.493,11.528   C140.379,105.437,145.503,104.526,149.075,100.781z"/><path
        d="M210.489,102.124c3.507-0.953,6.11-3.251,7.028-5.8l0.296-0.08c1.658-0.451,2.646-2.176,2.195-3.835   c-0.452-1.658-2.176-2.646-3.835-2.194l-0.296,0.08c-2.083-1.732-5.492-2.394-8.999-1.441c-4.994,1.358-8.236,5.431-7.239,9.095   C200.637,101.613,205.494,103.483,210.489,102.124z"/><path
        d="M265.567,141.14c3.135,1.838,6.599,2.091,9.062,0.963l0.265,0.155c1.482,0.869,3.407,0.368,4.275-1.115   c0.87-1.482,0.368-3.407-1.115-4.275l-0.265-0.156c-0.22-2.7-2.131-5.598-5.267-7.437c-4.465-2.617-9.643-2.084-11.563,1.192   C259.038,133.744,261.101,138.522,265.567,141.14z"/><path
        d="M287.648,190.047c-0.416,1.667,0.607,3.371,2.275,3.788c1.667,0.416,3.371-0.607,3.788-2.275l0.075-0.298   c2.529-0.971,4.771-3.623,5.651-7.148c1.254-5.022-0.717-9.839-4.402-10.759c-3.684-0.92-7.687,2.405-8.941,7.428   c-0.88,3.526-0.147,6.92,1.629,8.966L287.648,190.047z"/><path
        d="M287.861,233.964c-3.572-0.67-6.917,0.264-8.854,2.158l-0.302-0.057c-1.689-0.316-3.329,0.806-3.646,2.495v0.001   c-0.316,1.689,0.807,3.329,2.495,3.645l0.302,0.057c1.12,2.467,3.9,4.548,7.472,5.218c5.087,0.953,9.779-1.3,10.478-5.032   C296.505,238.716,292.948,234.918,287.861,233.964z"/><path
        d="M217.926,332.707c2.956-2.115,4.596-5.176,4.569-7.885l0.251-0.179c1.397-0.999,1.722-2.961,0.722-4.358   c-1-1.398-2.961-1.722-4.359-0.722l-0.25,0.178c-2.556-0.899-5.981-0.333-8.936,1.783c-4.21,3.013-5.83,7.959-3.619,11.046   C208.513,335.659,213.718,335.72,217.926,332.707z"/><path
        d="M188.229,354.168c-3.413-1.666-8.021,0.754-10.291,5.405c-1.594,3.266-1.583,6.738-0.272,9.109l-0.134,0.276   c-0.754,1.545-0.107,3.425,1.437,4.178c1.545,0.754,3.425,0.107,4.178-1.437l0.135-0.277c2.676-0.424,5.421-2.55,7.015-5.816   C192.567,360.955,191.641,355.833,188.229,354.168z"/><path
        d="M150.085,391.442c-3.413-1.666-8.021,0.754-10.291,5.405c-1.594,3.266-1.583,6.738-0.272,9.108l-0.134,0.277   c-0.754,1.544-0.107,3.425,1.437,4.178c1.545,0.753,3.425,0.107,4.178-1.437l0.135-0.276c2.676-0.424,5.421-2.551,7.015-5.816   C154.422,398.229,153.497,393.108,150.085,391.442z"/><path
        d="M311.393,399.269c-1.726-3.383-6.863-4.219-11.473-1.867c-3.238,1.652-5.316,4.433-5.693,7.116l-0.274,0.14   c-1.531,0.78-2.144,2.672-1.363,4.202c0.78,1.531,2.672,2.145,4.202,1.364l0.274-0.14c2.394,1.27,5.865,1.22,9.103-0.431   C310.779,407.301,313.118,402.652,311.393,399.269z"/><path
        d="M384.307,340.585c-3.593,0.551-6.441,2.538-7.642,4.966l-0.304,0.046c-1.698,0.26-2.876,1.863-2.615,3.562   c0.26,1.698,1.862,2.875,3.561,2.615l0.304-0.047c1.873,1.958,5.185,3.003,8.777,2.453c5.116-0.783,8.798-4.461,8.224-8.215   C394.036,342.211,389.423,339.802,384.307,340.585z"/><path
        d="M426.157,295.347c-3.665-0.993-7.734,2.251-9.088,7.247c-0.951,3.507-0.286,6.916,1.449,8.997l-0.08,0.297   c-0.45,1.659,0.54,3.383,2.198,3.833c1.659,0.45,3.383-0.54,3.833-2.199l0.08-0.297c2.548-0.92,4.843-3.526,5.794-7.034   C431.697,301.195,429.822,296.34,426.157,295.347z"/><path
        d="M453.957,237.646l-0.203,0.231c-2.694-0.29-5.899,1.044-8.292,3.779c-3.409,3.895-3.856,9.081-0.999,11.581   c2.858,2.501,7.939,1.371,11.347-2.524c2.394-2.735,3.291-6.089,2.646-8.721l0.202-0.231c1.132-1.293,0.999-3.277-0.293-4.409   C457.073,236.22,455.088,236.352,453.957,237.646z"/><path
        d="M444.903,176.749c-1.352,1.06-1.592,3.033-0.531,4.386l0.189,0.242c-0.786,2.593-0.07,5.99,2.172,8.851   c3.194,4.073,8.205,5.476,11.194,3.133c2.988-2.343,2.822-7.545-0.371-11.618c-2.243-2.86-5.372-4.365-8.077-4.22l-0.189-0.242   C448.229,175.928,446.255,175.689,444.903,176.749z"/><path
        d="M415.664,118.875c-3.424,1.22-5.843,3.71-6.563,6.322l-0.289,0.104c-1.619,0.577-2.471,2.373-1.894,3.991   s2.373,2.471,3.991,1.894l0.29-0.104c2.209,1.568,5.659,1.967,9.081,0.747c4.876-1.738,7.795-6.046,6.52-9.623   C425.526,118.629,420.54,117.138,415.664,118.875z"/><path
        d="M364.705,88.552l-0.212-0.222c-1.186-1.244-3.174-1.291-4.418-0.105c-1.243,1.186-1.291,3.173-0.105,4.417l0.213,0.223   c-0.533,2.656,0.508,5.969,3.016,8.599c3.572,3.745,8.697,4.657,11.444,2.036c2.749-2.622,2.08-7.783-1.492-11.528   C370.643,89.343,367.383,88.147,364.705,88.552z"/><path
        d="M305.395,89.538c-3.507-0.953-6.915-0.292-8.998,1.441l-0.296-0.081c-1.658-0.451-3.384,0.537-3.835,2.195   c-0.452,1.658,0.536,3.383,2.194,3.835l0.296,0.08c0.918,2.549,3.522,4.847,7.029,5.8c4.994,1.358,9.851-0.511,10.848-4.175   C313.632,94.969,310.391,90.896,305.395,89.538z"/><path
        d="M218.564,192.244c0.416,1.667,2.121,2.69,3.788,2.275h0.001c1.666-0.416,2.69-2.121,2.274-3.788l-0.074-0.298   c1.775-2.046,2.509-5.441,1.629-8.966c-1.254-5.022-5.257-8.348-8.942-7.429c-3.684,0.92-5.655,5.737-4.401,10.759   c0.88,3.526,3.123,6.178,5.651,7.149L218.564,192.244z"/><path
        d="M233.57,236.75l-0.302,0.056c-1.937-1.893-5.282-2.827-8.853-2.157c-5.087,0.953-8.645,4.752-7.946,8.485   c0.7,3.732,5.391,5.985,10.479,5.032c3.571-0.67,6.352-2.751,7.471-5.218l0.302-0.057c1.689-0.316,2.812-1.957,2.495-3.646   C236.9,237.556,235.259,236.433,233.57,236.75z"/><path
        d="M302.353,322.208c-2.955-2.115-6.381-2.682-8.937-1.783l-0.25-0.179c-1.397-0.999-3.359-0.675-4.359,0.722v0.001   c-0.999,1.397-0.675,3.358,0.723,4.358l0.25,0.179c-0.027,2.709,1.614,5.77,4.569,7.885c4.21,3.013,9.413,2.951,11.624-0.137   C308.182,330.166,306.562,325.221,302.353,322.208z"/><path
        d="M334.338,360.257c-2.271-4.651-6.878-7.072-10.291-5.405c-3.413,1.665-4.338,6.787-2.067,11.439   c1.594,3.265,4.338,5.393,7.015,5.816l0.134,0.276c0.754,1.545,2.634,2.191,4.178,1.437c1.545-0.753,2.191-2.634,1.437-4.178   l-0.135-0.277C335.92,366.995,335.932,363.523,334.338,360.257z"/><path
        d="M360.124,403.564c1.594,3.266,4.338,5.393,7.015,5.817l0.134,0.276c0.754,1.545,2.634,2.191,4.178,1.437   c1.545-0.754,2.191-2.634,1.437-4.178l-0.135-0.277c1.311-2.37,1.323-5.842-0.271-9.108c-2.271-4.651-6.878-7.072-10.291-5.405   C358.778,393.792,357.853,398.913,360.124,403.564z"/><path
        d="M268.73,285.593c0.017-1.718-1.373-3.138-3.092-3.156c-1.719-0.018-3.139,1.373-3.156,3.092l-0.004,0.307   c-2.234,1.532-3.799,4.631-3.837,8.265c-0.053,5.177,2.982,9.404,6.78,9.443c3.797,0.04,6.919-4.125,6.972-9.3   c0.038-3.635-1.464-6.765-3.666-8.343L268.73,285.593z"/><path
        d="M260.415,415.531c-3.109-1.882-6.569-2.183-9.048-1.09l-0.262-0.16c-1.47-0.889-3.401-0.415-4.291,1.055   c-0.889,1.47-0.415,3.4,1.055,4.291l0.262,0.159c0.182,2.703,2.053,5.628,5.162,7.51c4.428,2.68,9.612,2.22,11.579-1.029   C266.839,423.018,264.843,418.211,260.415,415.531z"/></g>
    </svg>